name analog
datacolumns 19
datarows 41
range 0.1625 0.1825
endheader
time	ground_force_vx	ground_force_vy	ground_force_vz	ground_force_px	ground_force_py	ground_force_pz	l_ground_force_vx	l_ground_force_vy	l_ground_force_vz	l_ground_force_px	l_ground_force_py	l_ground_force_pz	ground_torque_x	ground_torque_y	ground_torque_z	l_ground_torque_x	l_ground_torque_y	l_ground_torque_z
0.1625	-0.0	-0.0	-0.0	-0.4294415116310119	-0.7855774760246277	-325.2787475585937	0.9561266899108888	-3.022542953491211	-323.5341491699219	-0.0	-0.0	-0.0	-0.0	-0.0	-0.0	92068.1796875	-6716.36181640625	-2657.768798828125
0.163	-0.0	-0.0	-0.0	-0.4850521683692932	-0.3091161847114563	-323.59002685546875	1.3306617736816406	-3.0165083408355717	-325.75848388671875	-0.0	-0.0	-0.0	-0.0	-0.0	-0.0	92292.171875	-6791.7529296875	-2651.981689453125
0.1635	-0.0	-0.0	-0.0	-0.7836058139801025	-1.0141594409942627	-325.34552001953125	1.436079978942871	-2.6854944229125977	-325.2676086425781	-0.0	-0.0	-0.0	-0.0	-0.0	-0.0	92554.140625	-7004.11328125	-2633.308349609375
0.164	-0.0	-0.0	-0.0	-0.8219502568244934	-0.9083217978477478	-325.4890441894531	1.3475236892700195	-2.241618156433105	-325.4757080078125	-0.0	-0.0	-0.0	-0.0	-0.0	-0.0	92593.9375	-6964.82958984375	-2532.33154296875
0.1645	-0.0	-0.0	-0.0	-1.070526123046875	-0.7473328113555908	-326.0530090332031	1.41937255859375	-2.119720458984375	-325.4093017578125	-0.0	-0.0	-0.0	-0.0	-0.0	-0.0	92955.25	-7215.59326171875	-2497.619140625
0.165	-0.0	-0.0	-0.0	-1.5325779914855957	-0.6771280169487	-326.0536193847656	1.5796512365341189	-1.5370956659317017	-327.436767578125	-0.0	-0.0	-0.0	-0.0	-0.0	-0.0	92926.0625	-7275.52783203125	-2354.69189453125
0.1655	-0.0	-0.0	-0.0	-1.3013161420822144	-0.3933300673961639	-325.4898681640625	1.4908004999160769	-1.7664337158203125	-326.805908203125	-0.0	-0.0	-0.0	-0.0	-0.0	-0.0	93058.4765625	-7558.62353515625	-2384.06982421875
0.166	-0.0	-0.0	-0.0	-1.570624589920044	-0.2498246729373932	-326.6192626953125	1.8107023239135744	-1.8539237976074217	-327.71307373046875	-0.0	-0.0	-0.0	-0.0	-0.0	-0.0	93406.1953125	-7438.29443359375	-2342.92138671875
0.1665	-0.0	-0.0	-0.0	-1.8199466466903689	-0.4810956120491028	-325.3499755859375	1.791778326034546	-1.6785589456558228	-328.41168212890625	-0.0	-0.0	-0.0	-0.0	-0.0	-0.0	93490.0	-7449.58447265625	-2384.3212890625
0.167	-0.0	-0.0	-0.0	-1.659383773803711	-0.7131000757217407	-325.2787475585937	1.4370615482330322	-2.03139877319336	-327.78375244140625	-0.0	-0.0	-0.0	-0.0	-0.0	-0.0	93350.4453125	-7446.15478515625	-2384.536376953125
0.1675	-0.0	-0.0	-0.0	-1.9450349807739256	-0.8025829792022705	-325.1377868652344	1.41937255859375	-1.9961135387420652	-329.1806640625	-0.0	-0.0	-0.0	-0.0	-0.0	-0.0	93600.1953125	-7784.2578125	-2568.49072265625
0.168	-0.0	-0.0	-0.0	-1.4810540676116943	-0.5884201526641846	-325.5600280761719	1.41937255859375	-1.854153752326965	-328.4125061035156	-0.0	-0.0	-0.0	-0.0	-0.0	-0.0	93644.6640625	-7656.7626953125	-2390.423828125
0.1685	-0.0	-0.0	-0.0	-0.6244735717773438	-0.7827854156494141	-326.8406982421875	1.633015275001526	-1.55464506149292	-328.83319091796875	-0.0	-0.0	-0.0	-0.0	-0.0	-0.0	93851.984375	-7679.4287109375	-2401.712646484375
0.169	-0.0	-0.0	-0.0	-0.5352630615234375	-0.7115392684936523	-326.5573425292969	2.269950151443481	-1.5897903442382812	-328.76220703125	-0.0	-0.0	-0.0	-0.0	-0.0	-0.0	93973.8515625	-7923.9677734375	-2300.806640625
0.1695	-0.0	-0.0	-0.0	-0.5891603827476501	-0.499500960111618	-325.9114990234375	2.040348052978516	-1.5381157398223877	-327.4317932128906	-0.0	-0.0	-0.0	-0.0	-0.0	-0.0	93679.8671875	-7831.77685546875	-2229.896728515625
0.17	-0.0	-0.0	-0.0	-0.0517915785312652	-0.4621782302856445	-325.3442077636719	1.8960506916046145	-1.41314697265625	-327.50421142578125	-0.0	-0.0	-0.0	-0.0	-0.0	-0.0	93791.359375	-8234.7939453125	-2437.0
0.1705	-0.0	-0.0	-0.0	-0.356842041015625	-0.5536303520202637	-326.4775085449219	2.182755947113037	-1.394545555114746	-327.2836303710937	-0.0	-0.0	-0.0	-0.0	-0.0	-0.0	93802.3203125	-8127.05224609375	-2205.6494140625
0.171	-0.0	-0.0	-0.0	-0.1945401728153228	-0.8021736145019531	-323.50146484375	2.0726332664489746	-1.624588131904602	-327.2185974121094	-0.0	-0.0	-0.0	-0.0	-0.0	-0.0	93630.796875	-8203.7470703125	-2425.991943359375
0.1715	-0.0	-0.0	-0.0	-0.4778687953948974	-0.362962394952774	-324.4464416503906	2.163939952850342	-1.4826033115386963	-327.4296569824219	-0.0	-0.0	-0.0	-0.0	-0.0	-0.0	93639.3984375	-8184.42431640625	-2276.6328125
0.17200000000000001	-0.0	-0.0	-0.0	-0.1241723522543907	-0.894912600517273	-323.2837829589844	2.303078413009644	-1.69374418258667	-325.9572448730469	-0.0	-0.0	-0.0	-0.0	-0.0	-0.0	93357.875	-8389.05078125	-2223.595703125
0.17250000000000001	-0.0	-0.0	-0.0	-0.0154854729771614	-0.713043212890625	-321.4093017578125	2.6768360137939453	-1.7090009450912476	-325.66815185546875	-0.0	-0.0	-0.0	-0.0	-0.0	-0.0	93106.0703125	-8543.0966796875	-2140.771484375
0.17300000000000001	-0.0	-0.0	-0.0	0.6636107563972473	-0.9651957750320436	-320.4720764160156	2.5767152309417725	-1.6436002254486084	-325.97119140625	-0.0	-0.0	-0.0	-0.0	-0.0	-0.0	93142.828125	-8500.5556640625	-2198.833740234375
0.17350000000000002	-0.0	-0.0	-0.0	0.5549584031105042	-0.7327209115028381	-321.3157958984375	2.8192360401153564	-1.5014686584472656	-324.3792419433594	-0.0	-0.0	-0.0	-0.0	-0.0	-0.0	92785.9609375	-8358.4130859375	-1998.914306640625
0.17400000000000002	-0.0	-0.0	-0.0	1.0209884643554688	-0.718024492263794	-320.11834716796875	3.089996099472046	-1.5358479022979736	-323.9541320800781	-0.0	-0.0	-0.0	-0.0	-0.0	-0.0	92728.2734375	-8469.5595703125	-1890.1204833984373
0.17450000000000002	-0.0	-0.0	-0.0	0.7482934594154358	0.0107388794422149	-320.6295166015625	2.8731985092163086	-1.6292245388031006	-324.0329895019531	-0.0	-0.0	-0.0	-0.0	-0.0	-0.0	92891.34375	-8449.076171875	-1938.053955078125
0.17500000000000002	-0.0	-0.0	-0.0	0.5899341702461243	-0.4111436605453491	-320.57330322265625	3.036109685897827	-0.9318272471427916	-323.66357421875	-0.0	-0.0	-0.0	-0.0	-0.0	-0.0	92882.3046875	-8605.1630859375	-2010.4034423828125
0.17550000000000002	-0.0	-0.0	-0.0	0.5413020849227905	-0.2673912048339844	-319.6278686523437	3.2136566638946533	-1.114011287689209	-324.55303955078125	-0.0	-0.0	-0.0	-0.0	-0.0	-0.0	92690.90625	-8568.8798828125	-1964.4794921875
0.176	-0.0	-0.0	-0.0	0.946916937828064	-0.1782608032226562	-319.4108581542969	3.3165431022644043	-0.6864392757415771	-322.6160888671875	-0.0	-0.0	-0.0	-0.0	-0.0	-0.0	92224.6953125	-8773.81640625	-1871.3387451171875
0.1765	-0.0	-0.0	-0.0	0.8096355199813843	-0.0343051813542842	-320.8233337402344	3.4328596591949463	-0.971538543701172	-320.5756530761719	-0.0	-0.0	-0.0	-0.0	-0.0	-0.0	92192.7421875	-8673.9306640625	-1825.5458984375
0.177	-0.0	-0.0	-0.0	0.1577271223068237	0.3700738549232483	-320.06298828125	3.5620336532592773	-1.032578468322754	-321.1388244628906	-0.0	-0.0	-0.0	-0.0	-0.0	-0.0	92155.9921875	-8671.0693359375	-1706.8392333984375
0.1775	-0.0	-0.0	-0.0	0.6586619019508362	0.5139672756195068	-320.1692810058594	3.786674737930298	-1.0804109573364258	-321.0043029785156	-0.0	-0.0	-0.0	-0.0	-0.0	-0.0	91919.84375	-8703.455078125	-1633.5823974609375
0.178	-0.0	-0.0	-0.0	0.5220964550971985	0.4875325858592987	-321.47674560546875	4.080696105957031	-0.9978360533714294	-320.5731811523437	-0.0	-0.0	-0.0	-0.0	-0.0	-0.0	91707.109375	-8579.662109375	-1512.744873046875
0.1785	-0.0	-0.0	-0.0	0.4038234949111938	0.1782608032226562	-321.021728515625	4.143456935882568	-1.223585605621338	-321.4862976074219	-0.0	-0.0	-0.0	-0.0	-0.0	-0.0	91871.7578125	-8880.4384765625	-1539.89404296875
0.179	-0.0	-0.0	-0.0	0.5140209197998047	-0.123084083199501	-320.0819091796875	4.3513503074646	-1.2237751483917236	-320.65435791015625	-0.0	-0.0	-0.0	-0.0	-0.0	-0.0	91704.296875	-8716.822265625	-1551.0592041015625
0.1795	-0.0	-0.0	-0.0	0.6458567380905151	0.4368072152137756	-320.0657043457031	4.368015766143799	-1.345919847488403	-323.0642395019531	-0.0	-0.0	-0.0	-0.0	-0.0	-0.0	91838.4453125	-8809.4482421875	-1409.8197021484375
0.18	-0.0	-0.0	-0.0	0.815191924571991	0.1659745126962661	-319.1772766113281	4.435539245605469	-1.1817185878753662	-320.7863464355469	-0.0	-0.0	-0.0	-0.0	-0.0	-0.0	91818.328125	-8936.6318359375	-1425.146728515625
0.1805	-0.0	-0.0	-0.0	0.71368408203125	0.2482941150665283	-321.0682983398437	4.291739463806152	-0.971538543701172	-321.219482421875	-0.0	-0.0	-0.0	-0.0	-0.0	-0.0	91740.9609375	-8944.5576171875	-1398.5828857421875
0.181	-0.0	-0.0	-0.0	0.6382772922515869	-0.0237280875444412	-318.301513671875	4.524250030517578	-1.1363121271133425	-319.86981201171875	-0.0	-0.0	-0.0	-0.0	-0.0	-0.0	91774.015625	-8889.607421875	-1358.373291015625
0.1815	-0.0	-0.0	-0.0	1.0135741233825684	-0.0761122405529022	-318.128173828125	4.735146045684815	-0.8715559840202332	-320.52117919921875	-0.0	-0.0	-0.0	-0.0	-0.0	-0.0	91709.9140625	-8928.087890625	-1283.60107421875
0.182	-0.0	-0.0	-0.0	0.6695099472999573	0.0670631676912307	-317.5087890625	4.845681667327881	-0.1881171762943267	-320.8249816894531	-0.0	-0.0	-0.0	-0.0	-0.0	-0.0	91697.1953125	-9030.646484375	-1238.6376953125
0.1825	-0.0	-0.0	-0.0	0.8921051025390625	-0.4231891334056854	-318.08258056640625	4.9124274253845215	-0.0219452232122421	-319.6493835449219	-0.0	-0.0	-0.0	-0.0	-0.0	-0.0	91769.5390625	-8896.5556640625	-1201.5909423828125
